<svg width="95" height="47" viewBox="0 0 95 47" fill="none" xmlns="http://www.w3.org/2000/svg">
<path d="M26.0134 4.21586C19.9396 3.80572 16.8109 3.18739 13.6382 8.22381C11.5396 11.555 10.1767 14.9511 8.33944 18.3723C4.50543 25.5117 11.2776 39.803 20.1001 40.6285C29.5378 41.5116 45.0545 30.4021 41.8911 20.3226C39.9811 14.2366 29.7097 4.05195 23.0992 8.84175" stroke="#F4C418" stroke-width="2" stroke-linecap="round" stroke-linejoin="round"/>
<path d="M45.6845 14.6871C45.3361 21.0308 46.7784 24.7978 48.3921 30.4655C48.9697 32.494 49.3145 25.9023 49.441 24.7466C50.059 19.1031 53.8602 15.7406 53.2963 23.839C52.8403 30.387 54.8348 28.6259 57.2178 23.7912C58.5734 21.041 60.3489 12.9763 61.6846 15.7355C63.2247 18.9167 61.8417 21.4683 61.9197 24.4352C61.9415 25.2624 62.9121 29.0373 63.4129 28.2424" stroke="#F4C418" stroke-width="2" stroke-linecap="round" stroke-linejoin="round"/>
<path d="M70.6985 16.6777C74.3497 19.1238 78.0208 25.9029 75.2724 30.2656C74.2366 31.91 76.838 26.4781 76.4101 24.5988C75.9132 22.4165 75.3327 19.2997 72.3951 19.1966C70.3907 19.1263 63.2903 25.028 65.203 26.9455C68.934 30.6858 72.4401 27.8122 74.6652 24.28" stroke="#F4C418" stroke-width="2" stroke-linecap="round" stroke-linejoin="round"/>
<path d="M77.1235 15.1649C75.7445 19.1451 74.6061 23.0484 76.8595 26.9735C78.7251 30.2231 79.021 24.1298 79.6657 22.5189C82.0775 16.4926 86.4156 12.1652 92.9999 16.0235" stroke="#F4C418" stroke-width="2" stroke-linecap="round" stroke-linejoin="round"/>
</svg>
