<svg width="131" height="127" viewBox="0 0 131 127" fill="none" xmlns="http://www.w3.org/2000/svg">
<path fill-rule="evenodd" clip-rule="evenodd" d="M86.4911 126.605C111.938 117.757 130.201 93.5614 130.201 65.1006C130.201 39.6579 115.606 17.6242 94.331 6.91544L89.0732 31.8902H106.378L103.232 47.622H85.9268L78.061 86.9512C77.0122 93.2439 74.9146 106.459 74.9146 108.976C74.9146 111.493 78.061 113.171 79.6341 113.695H89.0732L86.4911 126.605ZM29.9134 119.882C11.9182 108.299 0 88.0917 0 65.1006C0 29.1465 29.1465 0 65.1006 0C70.6487 0 76.0347 0.694027 81.1765 2H73.3415C71.2439 5.67073 64.2171 14.9 52.8902 22.4512C41.5634 30.0024 30.3415 31.8902 26.1463 31.8902L23 46.0488H40.3049L29.2927 96.3902C27.9815 102.072 26.6703 113.364 29.9134 119.882Z" fill="#B84242"/>
</svg>
